<?xml version="1.0" encoding="UTF-8" standalone="no"?>
<svg
   width="33.717262"
   height="28.621532"
   viewBox="0 0 33.717262 28.621532"
   fill="none"
   version="1.1"
   id="svg8"
   xmlns="http://www.w3.org/2000/svg"
   xmlns:svg="http://www.w3.org/2000/svg">
  <defs
     id="defs8" />
  <path
     d="m 17.370638,25.833932 c -0.0709,-0.2301 -0.1804,-0.4466 -0.3238,-0.6401 -0.1995,-0.2716 -0.46,-0.4926 -0.7604,-0.6452 -0.3005,-0.1526 -0.6325,-0.2327 -0.9695,-0.2337 -0.0689,0 -0.1377,0 -0.2066,0.0103 -0.1727,0.0179 -0.3427,0.0558 -0.5068,0.1128 -0.4786,0.1691 -0.8821,0.5019 -1.1392,0.9396 -0.2571,0.4377 -0.3513,0.9521 -0.266,1.4525 0.0854,0.5005 0.3447,0.9546 0.7324,1.2824 0.3876,0.3277 0.8786,0.508 1.3862,0.509 0.0674,0 0.1362,-0.0029 0.2065,-0.0088 0.5423,-0.0521 1.0446,-0.3077 1.4059,-0.7155 0.3612,-0.4077 0.5545,-0.9372 0.5409,-1.4817 0,-0.0513 0,-0.1026 0,-0.1553 -0.0145,-0.1491 -0.0439,-0.2963 -0.0879,-0.4395"
     fill="#1d2227"
     id="path1" />
  <path
     d="m 28.812338,23.648432 c -0.3639,-0.2972 -0.8151,-0.467 -1.2846,-0.4834 h -0.0733 c -0.069,-2e-4 -0.1379,0.0033 -0.2065,0.0103 -0.342,0.0326 -0.6712,0.1467 -0.9599,0.3327 -0.2888,0.1861 -0.5287,0.4387 -0.6998,0.7366 -0.1315,0.2258 -0.22,0.4742 -0.2607,0.7324 -0.0292,0.1791 -0.0356,0.3612 -0.0191,0.542 0,0.0234 0.0074,0.0454 0.0103,0.0688 0.0659,0.519 0.3186,0.9963 0.7109,1.3425 0.3923,0.3461 0.8972,0.5375 1.4204,0.5384 0.069,2e-4 0.1379,-0.0032 0.2066,-0.0103 0.4245,-0.0407 0.8273,-0.2067 1.1574,-0.4768 0.33,-0.2701 0.5723,-0.6322 0.6962,-1.0403 0.1238,-0.4081 0.1236,-0.8438 -7e-4,-1.2518 -0.1242,-0.408 -0.3669,-0.7698 -0.6972,-1.0396"
     fill="#1d2227"
     id="path2" />
  <path
     d="m 9.442938,12.613632 -0.375,-3.9315995 c -0.0883,-0.9129 -0.513,-1.7604 -1.1914,-2.37766 -0.6785,-0.61725 -1.56219,-0.96017 -2.47941,-0.96209 -0.11572,0 -0.23437,0 -0.35302,0.01611 l -3.5155702,0.33545 c -0.43269,0.04401 -0.83207,0.25213 -1.11603,0.58156 -0.28397,0.32943 -0.43092,0.75513 -0.41066,1.18963 0.02025,0.4344 0.20619,0.8446 0.51958,1.1462 0.31338,0.3015 0.7304,0.4716 1.16531,0.4751 0.0542,0 0.1084,0 0.16406,0 l 3.5155702,-0.3354 h 0.02783 c 0.07266,-4e-4 0.14286,0.0262 0.197,0.0746 0.05414,0.0485 0.08834,0.1153 0.09597,0.1876 l 0.37499,3.9329995 c 0.067,0.714 0.18943,1.4217 0.36621,2.1167 0.21001,-0.2145 0.47037,-0.3732 0.75727,-0.4614 l 2.4478,-0.7559 c -0.0877,-0.4065 -0.1513,-0.8179 -0.1905,-1.2319 z"
     fill="#1d2227"
     id="path3" />
  <path
     d="m 33.655138,10.308032 -0.1934,-2.0389995 c -0.0404,-0.4205 -0.2358,-0.811 -0.5483,-1.09531 -0.3125,-0.28432 -0.7196,-0.44216 -1.1421,-0.44277 -0.0542,0 -0.1084,0 -0.164,0 -0.2224,0.02111 -0.4384,0.08585 -0.6357,0.1905 -0.1972,0.10466 -0.372,0.24717 -0.5141,0.41938 -0.1422,0.1723 -0.249,0.3708 -0.3144,0.5844 -0.0654,0.2135 -0.088,0.4379 -0.0666,0.6602 l 0.2007,2.0448995 c 0.0278,0.2929 0.0396,0.5859 0.0425,0.8686 0.03,2.6232 -0.9262,5.162 -2.6793,7.1136 -1.753,1.9516 -4.175,3.1737 -6.7864,3.4243 -0.3359,0.0303 -0.6689,0.0459 -0.999,0.0469 -1.2878,5e-4 -2.5645,-0.239 -3.7646,-0.706 -1.1137,-0.4345 -2.1455,-1.0551 -3.0512,-1.8354 l -0.293,0.8261 c -0.1209,0.3467 -0.3453,0.648 -0.6427,0.8632 -0.2975,0.2153 -0.6538,0.3342 -1.0209,0.3408 -0.3671,0.0065 -0.7274,-0.0996 -1.0324,-0.3042 -0.3049,-0.2045 -0.5398,-0.4976 -0.6731,-0.8397 l -0.6108,-1.5674 -1.0342,-0.5229 c 1.302,2.3373 3.2484,4.2511 5.6074,5.5136 0.4839,-0.3659 1.0601,-0.59 1.664,-0.6475 0.104,-0.0102 0.2095,-0.0146 0.3135,-0.0146 0.6857,-0.0022 1.3546,0.2114 1.9122,0.6104 0.5576,0.3991 0.9755,0.9634 1.1947,1.6132 0.4725,0.0492 0.9472,0.0742 1.4223,0.0747 0.4385,0 0.8804,-0.021 1.3257,-0.063 1.033,-0.0987 2.0516,-0.3134 3.0365,-0.6402 0.1175,-0.7158 0.4686,-1.3726 0.9985,-1.8678 0.53,-0.4953 1.2091,-0.8012 1.9312,-0.8699 0.104,-0.0088 0.2095,-0.0147 0.3149,-0.0147 0.4318,5e-4 0.8593,0.0856 1.2583,0.2505 1.7369,-1.4415 3.0953,-3.2856 3.9569,-5.3719 0.8617,-2.0863 1.2004,-4.3515 0.9869,-6.5986"
     fill="#1d2227"
     id="path4" />
  <path
     d="m 29.105438,10.360932 c -0.647,-0.4283995 -1.3623,-0.7434995 -2.1152,-0.9315995 1.8003,-1.125 2.6235,-2.81245 2.4404,-4.73283 -0.293,-3.13033 -3.1743,-5.15178003 -8.8739,-4.60833003 l -7.3241,0.69872 c -0.4886,0.04593 -0.9633,0.18767 -1.3971,0.41713003 -0.4337,0.22946 -0.818,0.54214 -1.1309,0.92018 -0.3129,0.37803 -0.5482,0.81402 -0.6925,1.28303 -0.1443,0.46901 -0.1948,0.96187 -0.1486,1.4504 l 0.7851,8.2674995 c 0.0205,0.1289 0.044,0.2563 0.0703,0.3837 l 1.5484,-0.4775 c 0.3614,-0.1122 0.749,-0.1071 1.1074,0.0144 0.3584,0.1216 0.6691,0.3534 0.8876,0.6624 0.1669,0.2328 0.275,0.5025 0.3151,0.7861 0.04,0.2837 0.0108,0.5728 -0.0851,0.8427 l -1.0605,3.0439 0.1641,0.1553 c 1.7107,1.5522 3.9375,2.4126 6.2474,2.414 0.293,0 0.5962,-0.0132 0.8921,-0.0424 2.4614,-0.2378 4.728,-1.442 6.3028,-3.3485 1.5749,-1.9066 2.3293,-4.3598 2.0979,-6.8218 z m -12.2796,-4.9993995 3.249,-0.30908 c 1.5659,-0.14648 2.3261,0.31494 2.4213,1.31834 0.0952,1.00344 -0.5625,1.61134 -2.1284,1.75774 l -3.2489,0.3091 z m 5.2367,10.5290995 -4.1952,0.3999 -0.3091,-3.2504 4.1938,-0.3984 c 1.5366,-0.1465 2.3569,0.3413 2.4594,1.4047 0.1026,1.0635 -0.6137,1.6978 -2.1489,1.8442 z"
     fill="#ea3a3d"
     id="path5" />
  <path
     d="m 12.806038,13.974632 c -0.0786,10e-5 -0.1566,0.0124 -0.2314,0.0366 l -5.0873,1.5703 c -0.1463,0.0456 -0.2757,0.1337 -0.3716,0.2532 -0.0959,0.1195 -0.1541,0.2649 -0.167,0.4175 -0.0129,0.1527 0.0201,0.3058 0.0946,0.4397 0.0745,0.1338 0.1873,0.2424 0.3238,0.3119 l 1.9497,0.9888 c 0.1696,0.0853 0.3016,0.2304 0.3706,0.4072 l 0.6445,1.6596 c 0.0572,0.1469 0.158,0.2727 0.2889,0.3605 0.131,0.0878 0.2856,0.1333 0.4432,0.1305 0.1576,-0.0029 0.3105,-0.054 0.4381,-0.1465 0.1277,-0.0925 0.2238,-0.222 0.2756,-0.3708 l 1.7505,-5.0317 c 0.0402,-0.1158 0.0523,-0.2394 0.0353,-0.3608 -0.0171,-0.1214 -0.0628,-0.2369 -0.1334,-0.3371 -0.0705,-0.1002 -0.1639,-0.1822 -0.2725,-0.2391 -0.1085,-0.057 -0.229,-0.0872 -0.3516,-0.0884"
     fill="#ea3a3d"
     id="path6" />
</svg>
